<?xml version="1.0" encoding="iso-8859-1"?>
<!-- Uploaded to: SVG Repo, www.svgrepo.com, Generator: SVG Repo Mixer Tools -->
<svg version="1.1" id="Layer_1" xmlns="http://www.w3.org/2000/svg" xmlns:xlink="http://www.w3.org/1999/xlink" 
	 viewBox="0 0 512 512" xml:space="preserve">
<polygon style="fill:#FFE6A1;" points="203.034,132.414 256,0 308.966,132.414 308.966,176.552 203.034,176.552 "/>
<polygon style="fill:#FFD796;" points="238.345,176.552 205.241,176.552 203.034,173.61 203.034,132.414 256,0 238.345,132.414 "/>
<path style="fill:#FFB44B;" d="M203.034,414.897V132.414c0,9.751,7.905,17.655,17.655,17.655c9.75,0,17.655-7.904,17.655-17.655
	v282.483H203.034z"/>
<path style="fill:#FFC855;" d="M238.345,512V132.414c0,9.751,7.905,17.655,17.655,17.655s17.655-7.904,17.655-17.655V512H238.345z"
	/>
<path style="fill:#FFD778;" d="M273.655,414.897V132.414c0,9.751,7.905,17.655,17.655,17.655c9.75,0,17.655-7.904,17.655-17.655
	v282.483H273.655z"/>
<polygon style="fill:#8CD2FF;" points="231.283,61.793 256,0 280.717,61.793 "/>
<g>
	<polygon style="fill:#69BEFF;" points="231.283,61.793 256,0 247.761,61.793 	"/>
	<rect x="203.034" y="414.897" style="fill:#69BEFF;" width="35.31" height="26.483"/>
</g>
<rect x="238.345" y="414.897" style="fill:#8CD2FF;" width="70.621" height="26.483"/>
<path style="fill:#FFE6A1;" d="M282.483,512h-52.966c-9.751,0-17.655-7.904-17.655-17.655v-44.138h88.276v44.138
	C300.138,504.096,292.233,512,282.483,512z"/>
<path style="fill:#FFD796;" d="M247.172,494.345v-44.138h-35.31v44.138c0,9.75,7.905,17.655,17.655,17.655h35.31
	C255.076,512,247.172,504.095,247.172,494.345z"/>
<path style="fill:#959CB3;" d="M238.345,441.379h-35.31v8.828c0,4.875,3.953,8.828,8.828,8.828h26.483V441.379z"/>
<path style="fill:#AFB9D2;" d="M238.345,441.379h70.621v8.828c0,4.875-3.953,8.828-8.828,8.828h-61.793V441.379z"/>
</svg>